# xmcd
#
# Track frame offsets: 
#        150
#        13096
#        29834
#        50414
#        65305
#        79074
#        100274
#        107338
#        124424
#        134264
#        147881
#        165723
#        178738
#        193339
#        208128
#        222626
#        240849
#        256310
#        272236
#
# Disc length: 4237 seconds
#
# Revision: 1
# Processed by: cddbd v1.5.2PL0 Copyright (c) Steve Scherf et al.
# Submitted via: ExactAudioCopy v0.95a5
#
DISCID=21108b13
DTITLE=Eric Bibb - Booker's Guitar
DYEAR=2010
DGENRE=Delta Blues
TTITLE0=Booker's Guitar
TTITLE1=With My Maker I Am One
TTITLE2=Flood Water
TTITLE3=Walkin' Blues Again
TTITLE4=Sunrise Blues
TTITLE5=Wayfaring Stranger
TTITLE6=Train From Aberdeen
TTITLE7=New Home
TTITLE8=Nobody's Fault But Mine
TTITLE9=One Soul To Save
TTITLE10=Rocking Chair
TTITLE11=Turning Pages
TTITLE12=A Good Woman
TTITLE13=Tell Riley
TTITLE14=A - Z Blues
TTITLE15=Everyday's Been Sunday
TTITLE16=River Of Song
TTITLE17=Dreaming In Mandinka
TTITLE18=Video Program
EXTD=
EXTT0=
EXTT1=
EXTT2=
EXTT3=
EXTT4=
EXTT5=
EXTT6=
EXTT7=
EXTT8=
EXTT9=
EXTT10=
EXTT11=
EXTT12=
EXTT13=
EXTT14=
EXTT15=
EXTT16=
EXTT17=
EXTT18=
PLAYORDER=
